<mxfile host="app.diagrams.net" modified="2021-04-02T18:41:35.080Z" agent="5.0 (Windows NT 10.0; Win64; x64) AppleWebKit/537.36 (KHTML, like Gecko) Chrome/89.0.4389.114 Safari/537.36" etag="50PlGuCQw5HnEX8tAu5J" version="14.5.3" type="github" pages="2">
  <diagram id="C5RBs43oDa-KdzZeNtuy" name="Collection">
    <mxGraphModel dx="2249" dy="1931" grid="1" gridSize="10" guides="1" tooltips="1" connect="1" arrows="1" fold="1" page="1" pageScale="1" pageWidth="827" pageHeight="1169" math="0" shadow="0">
      <root>
        <mxCell id="WIyWlLk6GJQsqaUBKTNV-0" />
        <mxCell id="WIyWlLk6GJQsqaUBKTNV-1" parent="WIyWlLk6GJQsqaUBKTNV-0" />
        <mxCell id="ttxkt150P3jB2o2z4LJt-0" value="&lt;&lt;Iterable&gt;&gt;" style="swimlane;fontStyle=0;childLayout=stackLayout;horizontal=1;startSize=26;fillColor=none;horizontalStack=0;resizeParent=1;resizeParentMax=0;resizeLast=0;collapsible=1;marginBottom=0;" vertex="1" parent="WIyWlLk6GJQsqaUBKTNV-1">
          <mxGeometry x="280" y="-1160" width="200" height="52" as="geometry" />
        </mxCell>
        <mxCell id="ttxkt150P3jB2o2z4LJt-4" value="&lt;&lt;Collection&gt;&gt;" style="swimlane;fontStyle=0;childLayout=stackLayout;horizontal=1;startSize=26;fillColor=none;horizontalStack=0;resizeParent=1;resizeParentMax=0;resizeLast=0;collapsible=1;marginBottom=0;" vertex="1" parent="WIyWlLk6GJQsqaUBKTNV-1">
          <mxGeometry x="280" y="-1040" width="200" height="52" as="geometry" />
        </mxCell>
        <mxCell id="ttxkt150P3jB2o2z4LJt-8" value="" style="endArrow=block;dashed=1;endFill=0;endSize=12;html=1;entryX=0.5;entryY=1;entryDx=0;entryDy=0;exitX=0.5;exitY=0;exitDx=0;exitDy=0;" edge="1" parent="WIyWlLk6GJQsqaUBKTNV-1" source="ttxkt150P3jB2o2z4LJt-4" target="ttxkt150P3jB2o2z4LJt-0">
          <mxGeometry width="160" relative="1" as="geometry">
            <mxPoint x="480" y="-870" as="sourcePoint" />
            <mxPoint x="640" y="-870" as="targetPoint" />
          </mxGeometry>
        </mxCell>
        <mxCell id="ttxkt150P3jB2o2z4LJt-9" value="&lt;&lt;List&gt;&gt;" style="swimlane;fontStyle=0;childLayout=stackLayout;horizontal=1;startSize=26;fillColor=none;horizontalStack=0;resizeParent=1;resizeParentMax=0;resizeLast=0;collapsible=1;marginBottom=0;" vertex="1" parent="WIyWlLk6GJQsqaUBKTNV-1">
          <mxGeometry x="-40" y="-920" width="200" height="52" as="geometry" />
        </mxCell>
        <mxCell id="ttxkt150P3jB2o2z4LJt-10" value="&lt;&lt;Queue&gt;&gt;" style="swimlane;fontStyle=0;childLayout=stackLayout;horizontal=1;startSize=26;fillColor=none;horizontalStack=0;resizeParent=1;resizeParentMax=0;resizeLast=0;collapsible=1;marginBottom=0;" vertex="1" parent="WIyWlLk6GJQsqaUBKTNV-1">
          <mxGeometry x="280" y="-920" width="200" height="52" as="geometry" />
        </mxCell>
        <mxCell id="ttxkt150P3jB2o2z4LJt-11" value="&lt;&lt;Set&gt;&gt;" style="swimlane;fontStyle=0;childLayout=stackLayout;horizontal=1;startSize=26;fillColor=none;horizontalStack=0;resizeParent=1;resizeParentMax=0;resizeLast=0;collapsible=1;marginBottom=0;" vertex="1" parent="WIyWlLk6GJQsqaUBKTNV-1">
          <mxGeometry x="600" y="-920" width="200" height="52" as="geometry" />
        </mxCell>
        <mxCell id="ttxkt150P3jB2o2z4LJt-12" value="PriorityQueue" style="swimlane;fontStyle=0;childLayout=stackLayout;horizontal=1;startSize=26;fillColor=none;horizontalStack=0;resizeParent=1;resizeParentMax=0;resizeLast=0;collapsible=1;marginBottom=0;" vertex="1" parent="WIyWlLk6GJQsqaUBKTNV-1">
          <mxGeometry x="314" y="-820" width="200" height="52" as="geometry" />
        </mxCell>
        <mxCell id="ttxkt150P3jB2o2z4LJt-13" value="&lt;&lt;Deque&gt;&gt;" style="swimlane;fontStyle=0;childLayout=stackLayout;horizontal=1;startSize=26;fillColor=none;horizontalStack=0;resizeParent=1;resizeParentMax=0;resizeLast=0;collapsible=1;marginBottom=0;" vertex="1" parent="WIyWlLk6GJQsqaUBKTNV-1">
          <mxGeometry x="280" y="-710" width="200" height="52" as="geometry" />
        </mxCell>
        <mxCell id="ttxkt150P3jB2o2z4LJt-14" value="ArrayDeque" style="swimlane;fontStyle=0;childLayout=stackLayout;horizontal=1;startSize=26;fillColor=none;horizontalStack=0;resizeParent=1;resizeParentMax=0;resizeLast=0;collapsible=1;marginBottom=0;" vertex="1" parent="WIyWlLk6GJQsqaUBKTNV-1">
          <mxGeometry x="280" y="-600" width="200" height="52" as="geometry" />
        </mxCell>
        <mxCell id="ttxkt150P3jB2o2z4LJt-15" value="ArrayList" style="swimlane;fontStyle=0;childLayout=stackLayout;horizontal=1;startSize=26;fillColor=none;horizontalStack=0;resizeParent=1;resizeParentMax=0;resizeLast=0;collapsible=1;marginBottom=0;" vertex="1" parent="WIyWlLk6GJQsqaUBKTNV-1">
          <mxGeometry x="-130" y="-820" width="200" height="52" as="geometry" />
        </mxCell>
        <mxCell id="ttxkt150P3jB2o2z4LJt-16" value="LinkedList" style="swimlane;fontStyle=0;childLayout=stackLayout;horizontal=1;startSize=26;fillColor=none;horizontalStack=0;resizeParent=1;resizeParentMax=0;resizeLast=0;collapsible=1;marginBottom=0;" vertex="1" parent="WIyWlLk6GJQsqaUBKTNV-1">
          <mxGeometry x="-130" y="-710" width="200" height="52" as="geometry" />
        </mxCell>
        <mxCell id="ttxkt150P3jB2o2z4LJt-17" value="Vector" style="swimlane;fontStyle=0;childLayout=stackLayout;horizontal=1;startSize=26;fillColor=none;horizontalStack=0;resizeParent=1;resizeParentMax=0;resizeLast=0;collapsible=1;marginBottom=0;" vertex="1" parent="WIyWlLk6GJQsqaUBKTNV-1">
          <mxGeometry x="-130" y="-600" width="200" height="52" as="geometry" />
        </mxCell>
        <mxCell id="ttxkt150P3jB2o2z4LJt-18" value="Stack" style="swimlane;fontStyle=0;childLayout=stackLayout;horizontal=1;startSize=26;fillColor=none;horizontalStack=0;resizeParent=1;resizeParentMax=0;resizeLast=0;collapsible=1;marginBottom=0;" vertex="1" parent="WIyWlLk6GJQsqaUBKTNV-1">
          <mxGeometry x="-130" y="-500" width="200" height="52" as="geometry" />
        </mxCell>
        <mxCell id="ttxkt150P3jB2o2z4LJt-19" value="HashSet" style="swimlane;fontStyle=0;childLayout=stackLayout;horizontal=1;startSize=26;fillColor=none;horizontalStack=0;resizeParent=1;resizeParentMax=0;resizeLast=0;collapsible=1;marginBottom=0;" vertex="1" parent="WIyWlLk6GJQsqaUBKTNV-1">
          <mxGeometry x="680" y="-820" width="200" height="52" as="geometry" />
        </mxCell>
        <mxCell id="ttxkt150P3jB2o2z4LJt-20" value="LinkedHashSet" style="swimlane;fontStyle=0;childLayout=stackLayout;horizontal=1;startSize=26;fillColor=none;horizontalStack=0;resizeParent=1;resizeParentMax=0;resizeLast=0;collapsible=1;marginBottom=0;" vertex="1" parent="WIyWlLk6GJQsqaUBKTNV-1">
          <mxGeometry x="680" y="-710" width="200" height="52" as="geometry" />
        </mxCell>
        <mxCell id="ttxkt150P3jB2o2z4LJt-21" value="&lt;&lt;SortedSet&gt;&gt;" style="swimlane;fontStyle=0;childLayout=stackLayout;horizontal=1;startSize=26;fillColor=none;horizontalStack=0;resizeParent=1;resizeParentMax=0;resizeLast=0;collapsible=1;marginBottom=0;" vertex="1" parent="WIyWlLk6GJQsqaUBKTNV-1">
          <mxGeometry x="600" y="-600" width="200" height="52" as="geometry" />
        </mxCell>
        <mxCell id="ttxkt150P3jB2o2z4LJt-22" value="TreeSet" style="swimlane;fontStyle=0;childLayout=stackLayout;horizontal=1;startSize=26;fillColor=none;horizontalStack=0;resizeParent=1;resizeParentMax=0;resizeLast=0;collapsible=1;marginBottom=0;" vertex="1" parent="WIyWlLk6GJQsqaUBKTNV-1">
          <mxGeometry x="600" y="-500" width="200" height="52" as="geometry" />
        </mxCell>
        <mxCell id="ttxkt150P3jB2o2z4LJt-23" value="" style="endArrow=block;dashed=1;endFill=0;endSize=12;html=1;entryX=0.75;entryY=1;entryDx=0;entryDy=0;" edge="1" parent="WIyWlLk6GJQsqaUBKTNV-1" target="ttxkt150P3jB2o2z4LJt-9">
          <mxGeometry width="160" relative="1" as="geometry">
            <mxPoint x="110" y="-580" as="sourcePoint" />
            <mxPoint x="510" y="-770" as="targetPoint" />
          </mxGeometry>
        </mxCell>
        <mxCell id="ttxkt150P3jB2o2z4LJt-24" value="" style="endArrow=none;dashed=1;html=1;" edge="1" parent="WIyWlLk6GJQsqaUBKTNV-1">
          <mxGeometry width="50" height="50" relative="1" as="geometry">
            <mxPoint x="70" y="-580" as="sourcePoint" />
            <mxPoint x="110" y="-580" as="targetPoint" />
          </mxGeometry>
        </mxCell>
        <mxCell id="ttxkt150P3jB2o2z4LJt-25" value="" style="endArrow=none;dashed=1;html=1;" edge="1" parent="WIyWlLk6GJQsqaUBKTNV-1">
          <mxGeometry width="50" height="50" relative="1" as="geometry">
            <mxPoint x="70" y="-684.5" as="sourcePoint" />
            <mxPoint x="110" y="-684.5" as="targetPoint" />
          </mxGeometry>
        </mxCell>
        <mxCell id="ttxkt150P3jB2o2z4LJt-26" value="" style="endArrow=none;dashed=1;html=1;" edge="1" parent="WIyWlLk6GJQsqaUBKTNV-1">
          <mxGeometry width="50" height="50" relative="1" as="geometry">
            <mxPoint x="70" y="-794.5" as="sourcePoint" />
            <mxPoint x="110" y="-794.5" as="targetPoint" />
          </mxGeometry>
        </mxCell>
        <mxCell id="ttxkt150P3jB2o2z4LJt-27" value="Extends" style="endArrow=block;endSize=16;endFill=0;html=1;entryX=0.5;entryY=1;entryDx=0;entryDy=0;exitX=0.5;exitY=0;exitDx=0;exitDy=0;" edge="1" parent="WIyWlLk6GJQsqaUBKTNV-1" source="ttxkt150P3jB2o2z4LJt-18" target="ttxkt150P3jB2o2z4LJt-17">
          <mxGeometry x="-0.1667" y="20" width="160" relative="1" as="geometry">
            <mxPoint x="-40" y="-500" as="sourcePoint" />
            <mxPoint x="120" y="-500" as="targetPoint" />
            <mxPoint as="offset" />
          </mxGeometry>
        </mxCell>
        <mxCell id="ttxkt150P3jB2o2z4LJt-28" value="" style="endArrow=block;dashed=1;endFill=0;endSize=12;html=1;entryX=0.5;entryY=1;entryDx=0;entryDy=0;exitX=0.325;exitY=0.019;exitDx=0;exitDy=0;exitPerimeter=0;" edge="1" parent="WIyWlLk6GJQsqaUBKTNV-1" source="ttxkt150P3jB2o2z4LJt-12" target="ttxkt150P3jB2o2z4LJt-10">
          <mxGeometry width="160" relative="1" as="geometry">
            <mxPoint x="350" y="-770" as="sourcePoint" />
            <mxPoint x="510" y="-770" as="targetPoint" />
          </mxGeometry>
        </mxCell>
        <mxCell id="ttxkt150P3jB2o2z4LJt-29" value="" style="endArrow=block;dashed=1;endFill=0;endSize=12;html=1;entryX=0;entryY=1;entryDx=0;entryDy=0;exitX=0;exitY=0;exitDx=0;exitDy=0;" edge="1" parent="WIyWlLk6GJQsqaUBKTNV-1" source="ttxkt150P3jB2o2z4LJt-13" target="ttxkt150P3jB2o2z4LJt-10">
          <mxGeometry width="160" relative="1" as="geometry">
            <mxPoint x="350" y="-770" as="sourcePoint" />
            <mxPoint x="510" y="-770" as="targetPoint" />
          </mxGeometry>
        </mxCell>
        <mxCell id="ttxkt150P3jB2o2z4LJt-30" value="" style="endArrow=block;dashed=1;endFill=0;endSize=12;html=1;exitX=0.5;exitY=0;exitDx=0;exitDy=0;entryX=0.5;entryY=1;entryDx=0;entryDy=0;" edge="1" parent="WIyWlLk6GJQsqaUBKTNV-1" source="ttxkt150P3jB2o2z4LJt-14" target="ttxkt150P3jB2o2z4LJt-13">
          <mxGeometry width="160" relative="1" as="geometry">
            <mxPoint x="350" y="-770" as="sourcePoint" />
            <mxPoint x="510" y="-770" as="targetPoint" />
          </mxGeometry>
        </mxCell>
        <mxCell id="ttxkt150P3jB2o2z4LJt-31" value="" style="endArrow=block;dashed=1;endFill=0;endSize=12;html=1;entryX=0.25;entryY=1;entryDx=0;entryDy=0;" edge="1" parent="WIyWlLk6GJQsqaUBKTNV-1" target="ttxkt150P3jB2o2z4LJt-11">
          <mxGeometry width="160" relative="1" as="geometry">
            <mxPoint x="650" y="-690" as="sourcePoint" />
            <mxPoint x="510" y="-770" as="targetPoint" />
          </mxGeometry>
        </mxCell>
        <mxCell id="ttxkt150P3jB2o2z4LJt-32" value="" style="endArrow=none;dashed=1;html=1;" edge="1" parent="WIyWlLk6GJQsqaUBKTNV-1">
          <mxGeometry width="50" height="50" relative="1" as="geometry">
            <mxPoint x="650" y="-690" as="sourcePoint" />
            <mxPoint x="680" y="-690" as="targetPoint" />
          </mxGeometry>
        </mxCell>
        <mxCell id="ttxkt150P3jB2o2z4LJt-33" value="" style="endArrow=none;dashed=1;html=1;" edge="1" parent="WIyWlLk6GJQsqaUBKTNV-1">
          <mxGeometry width="50" height="50" relative="1" as="geometry">
            <mxPoint x="650" y="-794.5" as="sourcePoint" />
            <mxPoint x="680" y="-794.5" as="targetPoint" />
          </mxGeometry>
        </mxCell>
        <mxCell id="ttxkt150P3jB2o2z4LJt-34" value="" style="endArrow=block;dashed=1;endFill=0;endSize=12;html=1;entryX=0.5;entryY=1;entryDx=0;entryDy=0;exitX=0.5;exitY=0;exitDx=0;exitDy=0;" edge="1" parent="WIyWlLk6GJQsqaUBKTNV-1" source="ttxkt150P3jB2o2z4LJt-22" target="ttxkt150P3jB2o2z4LJt-21">
          <mxGeometry width="160" relative="1" as="geometry">
            <mxPoint x="630" y="-510" as="sourcePoint" />
            <mxPoint x="630" y="-548" as="targetPoint" />
          </mxGeometry>
        </mxCell>
        <mxCell id="ttxkt150P3jB2o2z4LJt-35" value="" style="endArrow=block;dashed=1;endFill=0;endSize=12;html=1;exitX=0;exitY=0;exitDx=0;exitDy=0;entryX=0;entryY=1;entryDx=0;entryDy=0;" edge="1" parent="WIyWlLk6GJQsqaUBKTNV-1" source="ttxkt150P3jB2o2z4LJt-21" target="ttxkt150P3jB2o2z4LJt-11">
          <mxGeometry width="160" relative="1" as="geometry">
            <mxPoint x="350" y="-770" as="sourcePoint" />
            <mxPoint x="510" y="-770" as="targetPoint" />
          </mxGeometry>
        </mxCell>
        <mxCell id="ttxkt150P3jB2o2z4LJt-36" value="" style="endArrow=block;dashed=1;endFill=0;endSize=12;html=1;exitX=0.5;exitY=0;exitDx=0;exitDy=0;entryX=0;entryY=0.5;entryDx=0;entryDy=0;" edge="1" parent="WIyWlLk6GJQsqaUBKTNV-1" source="ttxkt150P3jB2o2z4LJt-9" target="ttxkt150P3jB2o2z4LJt-4">
          <mxGeometry width="160" relative="1" as="geometry">
            <mxPoint x="350" y="-770" as="sourcePoint" />
            <mxPoint x="510" y="-770" as="targetPoint" />
            <Array as="points">
              <mxPoint x="60" y="-1014" />
            </Array>
          </mxGeometry>
        </mxCell>
        <mxCell id="ttxkt150P3jB2o2z4LJt-37" value="" style="endArrow=block;dashed=1;endFill=0;endSize=12;html=1;exitX=0.5;exitY=0;exitDx=0;exitDy=0;entryX=1;entryY=0.5;entryDx=0;entryDy=0;" edge="1" parent="WIyWlLk6GJQsqaUBKTNV-1" source="ttxkt150P3jB2o2z4LJt-11" target="ttxkt150P3jB2o2z4LJt-4">
          <mxGeometry width="160" relative="1" as="geometry">
            <mxPoint x="350" y="-770" as="sourcePoint" />
            <mxPoint x="510" y="-770" as="targetPoint" />
            <Array as="points">
              <mxPoint x="700" y="-960" />
              <mxPoint x="700" y="-1014" />
              <mxPoint x="600" y="-1014" />
            </Array>
          </mxGeometry>
        </mxCell>
        <mxCell id="ttxkt150P3jB2o2z4LJt-38" value="" style="endArrow=block;dashed=1;endFill=0;endSize=12;html=1;exitX=0.5;exitY=0;exitDx=0;exitDy=0;entryX=0.5;entryY=1;entryDx=0;entryDy=0;" edge="1" parent="WIyWlLk6GJQsqaUBKTNV-1" source="ttxkt150P3jB2o2z4LJt-10" target="ttxkt150P3jB2o2z4LJt-4">
          <mxGeometry width="160" relative="1" as="geometry">
            <mxPoint x="350" y="-770" as="sourcePoint" />
            <mxPoint x="510" y="-770" as="targetPoint" />
          </mxGeometry>
        </mxCell>
      </root>
    </mxGraphModel>
  </diagram>
  <diagram id="TohXEK7yjSl9_S_MFWjl" name="Map">
    <mxGraphModel dx="2272" dy="762" grid="1" gridSize="10" guides="1" tooltips="1" connect="1" arrows="1" fold="1" page="1" pageScale="1" pageWidth="850" pageHeight="1100" math="0" shadow="0">
      <root>
        <mxCell id="H0jgoz1B89xcvzg4A8W_-0" />
        <mxCell id="H0jgoz1B89xcvzg4A8W_-1" parent="H0jgoz1B89xcvzg4A8W_-0" />
        <mxCell id="H0jgoz1B89xcvzg4A8W_-2" value="&lt;&lt;Map&gt;&gt;" style="swimlane;fontStyle=0;childLayout=stackLayout;horizontal=1;startSize=26;fillColor=none;horizontalStack=0;resizeParent=1;resizeParentMax=0;resizeLast=0;collapsible=1;marginBottom=0;" vertex="1" parent="H0jgoz1B89xcvzg4A8W_-1">
          <mxGeometry x="310" y="40" width="200" height="52" as="geometry" />
        </mxCell>
        <mxCell id="H0jgoz1B89xcvzg4A8W_-6" value="&lt;&lt;SortedMap&gt;&gt;" style="swimlane;fontStyle=0;childLayout=stackLayout;horizontal=1;startSize=26;fillColor=none;horizontalStack=0;resizeParent=1;resizeParentMax=0;resizeLast=0;collapsible=1;marginBottom=0;" vertex="1" parent="H0jgoz1B89xcvzg4A8W_-1">
          <mxGeometry x="550" y="160" width="200" height="52" as="geometry" />
        </mxCell>
        <mxCell id="H0jgoz1B89xcvzg4A8W_-7" value="&lt;&lt;ConcurrentMap&gt;&gt;" style="swimlane;fontStyle=0;childLayout=stackLayout;horizontal=1;startSize=26;fillColor=none;horizontalStack=0;resizeParent=1;resizeParentMax=0;resizeLast=0;collapsible=1;marginBottom=0;" vertex="1" parent="H0jgoz1B89xcvzg4A8W_-1">
          <mxGeometry x="310" y="160" width="200" height="50" as="geometry" />
        </mxCell>
        <mxCell id="H0jgoz1B89xcvzg4A8W_-8" value="&lt;&lt;NavigableMap&gt;&gt;" style="swimlane;fontStyle=0;childLayout=stackLayout;horizontal=1;startSize=26;fillColor=none;horizontalStack=0;resizeParent=1;resizeParentMax=0;resizeLast=0;collapsible=1;marginBottom=0;" vertex="1" parent="H0jgoz1B89xcvzg4A8W_-1">
          <mxGeometry x="550" y="250" width="200" height="52" as="geometry" />
        </mxCell>
        <mxCell id="H0jgoz1B89xcvzg4A8W_-9" value="&lt;&lt;ConcurrentNavigableMap&gt;&gt;" style="swimlane;fontStyle=0;childLayout=stackLayout;horizontal=1;startSize=26;fillColor=none;horizontalStack=0;resizeParent=1;resizeParentMax=0;resizeLast=0;collapsible=1;marginBottom=0;" vertex="1" parent="H0jgoz1B89xcvzg4A8W_-1">
          <mxGeometry x="430" y="350" width="200" height="52" as="geometry" />
        </mxCell>
        <mxCell id="H0jgoz1B89xcvzg4A8W_-10" value="ConcurrentSkipListMap" style="swimlane;fontStyle=0;childLayout=stackLayout;horizontal=1;startSize=26;fillColor=none;horizontalStack=0;resizeParent=1;resizeParentMax=0;resizeLast=0;collapsible=1;marginBottom=0;" vertex="1" parent="H0jgoz1B89xcvzg4A8W_-1">
          <mxGeometry x="550" y="440" width="200" height="52" as="geometry" />
        </mxCell>
        <mxCell id="H0jgoz1B89xcvzg4A8W_-11" value="ConcurrentHashMap" style="swimlane;fontStyle=0;childLayout=stackLayout;horizontal=1;startSize=26;fillColor=none;horizontalStack=0;resizeParent=1;resizeParentMax=0;resizeLast=0;collapsible=1;marginBottom=0;" vertex="1" parent="H0jgoz1B89xcvzg4A8W_-1">
          <mxGeometry x="310" y="440" width="200" height="52" as="geometry" />
        </mxCell>
        <mxCell id="H0jgoz1B89xcvzg4A8W_-12" value="TreeMap" style="swimlane;fontStyle=0;childLayout=stackLayout;horizontal=1;startSize=26;fillColor=none;horizontalStack=0;resizeParent=1;resizeParentMax=0;resizeLast=0;collapsible=1;marginBottom=0;" vertex="1" parent="H0jgoz1B89xcvzg4A8W_-1">
          <mxGeometry x="670" y="350" width="200" height="52" as="geometry" />
        </mxCell>
        <mxCell id="H0jgoz1B89xcvzg4A8W_-13" value="Hashtable" style="swimlane;fontStyle=0;childLayout=stackLayout;horizontal=1;startSize=26;fillColor=none;horizontalStack=0;resizeParent=1;resizeParentMax=0;resizeLast=0;collapsible=1;marginBottom=0;" vertex="1" parent="H0jgoz1B89xcvzg4A8W_-1">
          <mxGeometry x="-10" y="160" width="200" height="52" as="geometry" />
        </mxCell>
        <mxCell id="H0jgoz1B89xcvzg4A8W_-14" value="HashMap" style="swimlane;fontStyle=0;childLayout=stackLayout;horizontal=1;startSize=26;fillColor=none;horizontalStack=0;resizeParent=1;resizeParentMax=0;resizeLast=0;collapsible=1;marginBottom=0;" vertex="1" parent="H0jgoz1B89xcvzg4A8W_-1">
          <mxGeometry x="-10" y="250" width="200" height="52" as="geometry" />
        </mxCell>
        <mxCell id="H0jgoz1B89xcvzg4A8W_-15" value="LinkedHashMap" style="swimlane;fontStyle=0;childLayout=stackLayout;horizontal=1;startSize=26;fillColor=none;horizontalStack=0;resizeParent=1;resizeParentMax=0;resizeLast=0;collapsible=1;marginBottom=0;" vertex="1" parent="H0jgoz1B89xcvzg4A8W_-1">
          <mxGeometry x="-10" y="350" width="200" height="52" as="geometry" />
        </mxCell>
        <mxCell id="H0jgoz1B89xcvzg4A8W_-16" value="IdentityHashtable" style="swimlane;fontStyle=0;childLayout=stackLayout;horizontal=1;startSize=26;fillColor=none;horizontalStack=0;resizeParent=1;resizeParentMax=0;resizeLast=0;collapsible=1;marginBottom=0;" vertex="1" parent="H0jgoz1B89xcvzg4A8W_-1">
          <mxGeometry x="-10" y="440" width="200" height="52" as="geometry" />
        </mxCell>
        <mxCell id="H0jgoz1B89xcvzg4A8W_-17" value="WeakHashMap" style="swimlane;fontStyle=0;childLayout=stackLayout;horizontal=1;startSize=26;fillColor=none;horizontalStack=0;resizeParent=1;resizeParentMax=0;resizeLast=0;collapsible=1;marginBottom=0;" vertex="1" parent="H0jgoz1B89xcvzg4A8W_-1">
          <mxGeometry x="-10" y="530" width="200" height="52" as="geometry" />
        </mxCell>
        <mxCell id="H0jgoz1B89xcvzg4A8W_-19" value="Extends" style="endArrow=block;endSize=16;endFill=0;html=1;exitX=0.5;exitY=0;exitDx=0;exitDy=0;entryX=0.5;entryY=1;entryDx=0;entryDy=0;" edge="1" parent="H0jgoz1B89xcvzg4A8W_-1" source="H0jgoz1B89xcvzg4A8W_-15" target="H0jgoz1B89xcvzg4A8W_-14">
          <mxGeometry x="-0.1667" y="30" width="160" relative="1" as="geometry">
            <mxPoint x="220" y="430" as="sourcePoint" />
            <mxPoint x="380" y="430" as="targetPoint" />
            <mxPoint as="offset" />
          </mxGeometry>
        </mxCell>
        <mxCell id="H0jgoz1B89xcvzg4A8W_-20" value="" style="endArrow=block;dashed=1;endFill=0;endSize=12;html=1;entryX=0;entryY=0.5;entryDx=0;entryDy=0;" edge="1" parent="H0jgoz1B89xcvzg4A8W_-1" target="H0jgoz1B89xcvzg4A8W_-2">
          <mxGeometry width="160" relative="1" as="geometry">
            <mxPoint x="240" y="570" as="sourcePoint" />
            <mxPoint x="380" y="430" as="targetPoint" />
            <Array as="points">
              <mxPoint x="240" y="66" />
            </Array>
          </mxGeometry>
        </mxCell>
        <mxCell id="H0jgoz1B89xcvzg4A8W_-22" value="" style="endArrow=none;dashed=1;html=1;" edge="1" parent="H0jgoz1B89xcvzg4A8W_-1">
          <mxGeometry width="50" height="50" relative="1" as="geometry">
            <mxPoint x="190" y="570" as="sourcePoint" />
            <mxPoint x="240" y="570" as="targetPoint" />
          </mxGeometry>
        </mxCell>
        <mxCell id="H0jgoz1B89xcvzg4A8W_-23" value="" style="endArrow=none;dashed=1;html=1;" edge="1" parent="H0jgoz1B89xcvzg4A8W_-1">
          <mxGeometry width="50" height="50" relative="1" as="geometry">
            <mxPoint x="190" y="465.5" as="sourcePoint" />
            <mxPoint x="240" y="465.5" as="targetPoint" />
          </mxGeometry>
        </mxCell>
        <mxCell id="H0jgoz1B89xcvzg4A8W_-24" value="" style="endArrow=none;dashed=1;html=1;" edge="1" parent="H0jgoz1B89xcvzg4A8W_-1">
          <mxGeometry width="50" height="50" relative="1" as="geometry">
            <mxPoint x="190" y="375.5" as="sourcePoint" />
            <mxPoint x="240" y="375.5" as="targetPoint" />
          </mxGeometry>
        </mxCell>
        <mxCell id="H0jgoz1B89xcvzg4A8W_-25" value="" style="endArrow=none;dashed=1;html=1;" edge="1" parent="H0jgoz1B89xcvzg4A8W_-1">
          <mxGeometry width="50" height="50" relative="1" as="geometry">
            <mxPoint x="190" y="275.5" as="sourcePoint" />
            <mxPoint x="240" y="275.5" as="targetPoint" />
          </mxGeometry>
        </mxCell>
        <mxCell id="H0jgoz1B89xcvzg4A8W_-26" value="" style="endArrow=none;dashed=1;html=1;" edge="1" parent="H0jgoz1B89xcvzg4A8W_-1">
          <mxGeometry width="50" height="50" relative="1" as="geometry">
            <mxPoint x="190" y="185.5" as="sourcePoint" />
            <mxPoint x="240" y="185.5" as="targetPoint" />
          </mxGeometry>
        </mxCell>
        <mxCell id="H0jgoz1B89xcvzg4A8W_-28" value="" style="endArrow=block;dashed=1;endFill=0;endSize=12;html=1;exitX=0.55;exitY=-0.038;exitDx=0;exitDy=0;entryX=1;entryY=0.5;entryDx=0;entryDy=0;exitPerimeter=0;" edge="1" parent="H0jgoz1B89xcvzg4A8W_-1" source="H0jgoz1B89xcvzg4A8W_-12" target="H0jgoz1B89xcvzg4A8W_-8">
          <mxGeometry width="160" relative="1" as="geometry">
            <mxPoint x="220" y="430" as="sourcePoint" />
            <mxPoint x="380" y="430" as="targetPoint" />
            <Array as="points">
              <mxPoint x="780" y="276" />
            </Array>
          </mxGeometry>
        </mxCell>
        <mxCell id="H0jgoz1B89xcvzg4A8W_-29" value="" style="endArrow=block;dashed=1;endFill=0;endSize=12;html=1;entryX=1;entryY=1;entryDx=0;entryDy=0;exitX=0.4;exitY=-0.038;exitDx=0;exitDy=0;exitPerimeter=0;" edge="1" parent="H0jgoz1B89xcvzg4A8W_-1" source="H0jgoz1B89xcvzg4A8W_-10" target="H0jgoz1B89xcvzg4A8W_-9">
          <mxGeometry width="160" relative="1" as="geometry">
            <mxPoint x="220" y="430" as="sourcePoint" />
            <mxPoint x="380" y="430" as="targetPoint" />
          </mxGeometry>
        </mxCell>
        <mxCell id="H0jgoz1B89xcvzg4A8W_-30" value="" style="endArrow=block;dashed=1;endFill=0;endSize=12;html=1;exitX=0.25;exitY=0;exitDx=0;exitDy=0;entryX=0.25;entryY=1;entryDx=0;entryDy=0;" edge="1" parent="H0jgoz1B89xcvzg4A8W_-1" source="H0jgoz1B89xcvzg4A8W_-11" target="H0jgoz1B89xcvzg4A8W_-7">
          <mxGeometry width="160" relative="1" as="geometry">
            <mxPoint x="220" y="430" as="sourcePoint" />
            <mxPoint x="380" y="430" as="targetPoint" />
          </mxGeometry>
        </mxCell>
        <mxCell id="H0jgoz1B89xcvzg4A8W_-31" value="Extends" style="endArrow=block;endSize=16;endFill=0;html=1;entryX=0.75;entryY=1;entryDx=0;entryDy=0;" edge="1" parent="H0jgoz1B89xcvzg4A8W_-1" target="H0jgoz1B89xcvzg4A8W_-7">
          <mxGeometry width="160" relative="1" as="geometry">
            <mxPoint x="460" y="348" as="sourcePoint" />
            <mxPoint x="500" y="360" as="targetPoint" />
          </mxGeometry>
        </mxCell>
        <mxCell id="H0jgoz1B89xcvzg4A8W_-32" value="Extends" style="endArrow=block;endSize=16;endFill=0;html=1;entryX=0.25;entryY=1;entryDx=0;entryDy=0;" edge="1" parent="H0jgoz1B89xcvzg4A8W_-1" target="H0jgoz1B89xcvzg4A8W_-8">
          <mxGeometry x="-0.2727" y="20" width="160" relative="1" as="geometry">
            <mxPoint x="600" y="350" as="sourcePoint" />
            <mxPoint x="500" y="360" as="targetPoint" />
            <mxPoint as="offset" />
          </mxGeometry>
        </mxCell>
        <mxCell id="H0jgoz1B89xcvzg4A8W_-33" value="Extends" style="endArrow=block;endSize=16;endFill=0;html=1;exitX=0.5;exitY=0;exitDx=0;exitDy=0;" edge="1" parent="H0jgoz1B89xcvzg4A8W_-1" source="H0jgoz1B89xcvzg4A8W_-8">
          <mxGeometry x="-0.4737" y="20" width="160" relative="1" as="geometry">
            <mxPoint x="340" y="360" as="sourcePoint" />
            <mxPoint x="650" y="212" as="targetPoint" />
            <mxPoint as="offset" />
          </mxGeometry>
        </mxCell>
        <mxCell id="H0jgoz1B89xcvzg4A8W_-34" value="Extends" style="endArrow=block;endSize=16;endFill=0;html=1;entryX=0.5;entryY=1;entryDx=0;entryDy=0;exitX=0.5;exitY=0;exitDx=0;exitDy=0;" edge="1" parent="H0jgoz1B89xcvzg4A8W_-1" source="H0jgoz1B89xcvzg4A8W_-7" target="H0jgoz1B89xcvzg4A8W_-2">
          <mxGeometry width="160" relative="1" as="geometry">
            <mxPoint x="340" y="360" as="sourcePoint" />
            <mxPoint x="500" y="360" as="targetPoint" />
          </mxGeometry>
        </mxCell>
        <mxCell id="H0jgoz1B89xcvzg4A8W_-35" value="Extends" style="endArrow=block;endSize=16;endFill=0;html=1;entryX=1;entryY=0.5;entryDx=0;entryDy=0;exitX=0.5;exitY=0;exitDx=0;exitDy=0;" edge="1" parent="H0jgoz1B89xcvzg4A8W_-1" source="H0jgoz1B89xcvzg4A8W_-6" target="H0jgoz1B89xcvzg4A8W_-2">
          <mxGeometry width="160" relative="1" as="geometry">
            <mxPoint x="340" y="360" as="sourcePoint" />
            <mxPoint x="500" y="360" as="targetPoint" />
            <Array as="points">
              <mxPoint x="650" y="66" />
            </Array>
          </mxGeometry>
        </mxCell>
      </root>
    </mxGraphModel>
  </diagram>
</mxfile>
